<svg id="SvgjsSvg1017" xmlns="http://www.w3.org/2000/svg" version="1.1" xmlns:xlink="http://www.w3.org/1999/xlink" xmlns:svgjs="http://svgjs.com/svgjs" width="36" height="36" viewBox="0 0 36 36"><title>Forma 1 copy 4</title><desc>Created with Avocode.</desc><defs id="SvgjsDefs1018"></defs><path id="SvgjsPath1019" d="M422.984 528C432.907 528 441 519.938 441 509.984C441 500.031 432.938 492 422.984 492C413.031 492 405 500.062 405 509.984C405 519.9069999999999 413.062 528 422.984 528ZM422.984 494.511C431.51099999999997 494.511 438.457 501.45700000000005 438.457 509.98400000000004C438.457 518.5120000000001 431.51099999999997 525.457 422.984 525.457C414.457 525.457 407.512 518.512 407.512 509.984C407.512 501.457 414.457 494.51099999999997 422.984 494.51099999999997ZM424.69 518.976C424.938 519.225 425.248 519.349 425.589 519.349C425.899 519.349 426.24 519.225 426.488 518.976C426.984 518.48 426.984 517.674 426.488 517.178L419.201 509.891L426.488 502.60400000000004C426.984 502.10800000000006 426.984 501.302 426.488 500.80600000000004C425.992 500.31000000000006 425.186 500.31000000000006 424.69 500.80600000000004L416.504 508.992C416.25600000000003 509.24 416.132 509.55 416.132 509.891C416.132 510.232 416.25600000000003 510.54200000000003 416.504 510.791Z " fill="#ffffff" fill-opacity="1" transform="matrix(1,0,0,1,-405,-492)"></path></svg>