<svg id="SvgjsSvg1020" xmlns="http://www.w3.org/2000/svg" version="1.1" xmlns:xlink="http://www.w3.org/1999/xlink" xmlns:svgjs="http://svgjs.com/svgjs" width="36" height="36" viewBox="0 0 36 36"><title>Forma 1 copy 5</title><desc>Created with Avocode.</desc><defs id="SvgjsDefs1021"></defs><path id="SvgjsPath1022" d="M1497.02 528C1487.09 528 1479 519.938 1479 509.984C1479 500.031 1487.06 492 1497.02 492C1506.97 492 1515 500.062 1515 509.984C1515 519.9069999999999 1506.94 528 1497.02 528ZM1497.02 494.511C1488.49 494.511 1481.54 501.45700000000005 1481.54 509.98400000000004C1481.54 518.5120000000001 1488.49 525.457 1497.02 525.457C1505.54 525.457 1512.49 518.512 1512.49 509.984C1512.49 501.457 1505.54 494.51099999999997 1497.02 494.51099999999997ZM1495.31 518.976C1495.06 519.225 1494.75 519.349 1494.4099999999999 519.349C1494.1 519.349 1493.7599999999998 519.225 1493.5099999999998 518.976C1493.0199999999998 518.48 1493.0199999999998 517.674 1493.5099999999998 517.178L1500.7999999999997 509.891L1493.5099999999998 502.60400000000004C1493.0199999999998 502.10800000000006 1493.0199999999998 501.302 1493.5099999999998 500.80600000000004C1494.0099999999998 500.31000000000006 1494.8099999999997 500.31000000000006 1495.3099999999997 500.80600000000004L1503.4999999999998 508.992C1503.7399999999998 509.24 1503.8699999999997 509.55 1503.8699999999997 509.891C1503.8699999999997 510.232 1503.7399999999996 510.54200000000003 1503.4999999999998 510.791Z " fill="#ffffff" fill-opacity="1" transform="matrix(1,0,0,1,-1479,-492)"></path></svg>