<svg id="SvgjsSvg1014" xmlns="http://www.w3.org/2000/svg" version="1.1" xmlns:xlink="http://www.w3.org/1999/xlink" xmlns:svgjs="http://svgjs.com/svgjs" width="21" height="21" viewBox="0 0 21 21"><title>Shape 1</title><desc>Created with Avocode.</desc><defs id="SvgjsDefs1015"></defs><path id="SvgjsPath1016" d="M1367.24 102.647L1363.32 98.72800000000001C1362.85 98.26020000000001 1362.09 98.26020000000001 1361.62 98.72800000000001L1360.61 99.74690000000001C1360.29 100.06600000000002 1360.1899999999998 100.522 1360.3 100.92800000000001L1359.9199999999998 101.31300000000002C1359.6399999999999 101.58600000000001 1357.9399999999998 101.16700000000002 1355.8899999999999 99.11140000000002C1353.83 97.05620000000002 1353.4099999999999 95.35600000000002 1353.6899999999998 95.08250000000001C1353.6899999999998 95.0824 1353.6899999999998 95.0824 1353.6899999999998 95.0824L1354.07 94.69770000000001C1354.1799999999998 94.7288 1354.29 94.74480000000001 1354.3999999999999 94.74480000000001C1354.7099999999998 94.74480000000001 1355.0199999999998 94.62770000000002 1355.2499999999998 94.39390000000002L1356.2699999999998 93.37490000000001C1356.7399999999998 92.90700000000001 1356.7399999999998 92.14600000000002 1356.2699999999998 91.67830000000001L1352.3499999999997 87.75940000000001C1352.1299999999997 87.53280000000001 1351.8199999999997 87.40790000000001 1351.4999999999998 87.40790000000001C1351.1799999999998 87.40790000000001 1350.8799999999999 87.53290000000001 1350.6599999999999 87.75940000000001L1349.6399999999999 88.77850000000001C1349.32 89.0978 1349.2199999999998 89.5537 1349.33 89.95970000000001C1349.33 89.95970000000001 1349.01 90.28880000000001 1348.99 90.30960000000002C1347.91 91.51460000000002 1347.7 93.41190000000002 1348.42 95.68030000000002C1349.13 97.90110000000001 1350.64 100.25400000000002 1352.69 102.30500000000002C1354.75 104.35600000000002 1357.1000000000001 105.87300000000002 1359.3200000000002 106.57700000000003C1360.2100000000003 106.86000000000003 1361.0500000000002 107.00000000000003 1361.8000000000002 107.00000000000003C1363.0500000000002 107.00000000000003 1364.0800000000002 106.62300000000003 1364.8300000000002 105.88000000000002L1365.0400000000002 105.66700000000003C1365.15 105.69700000000003 1365.2600000000002 105.71400000000003 1365.3700000000001 105.71400000000003C1365.69 105.71400000000003 1365.99 105.58900000000003 1366.22 105.36300000000003L1367.24 104.34300000000003C1367.71 103.87600000000003 1367.71 103.11500000000004 1367.24 102.64700000000003ZM1351.5 88.6075L1355.42 92.5266L1354.4 93.5462C1354.4 93.5462 1354.4 93.54599999999999 1354.4 93.5456L1354.39 93.53089999999999L1352.44 91.58609999999999L1350.49 89.62679999999999ZM1363.98 105.032C1363.1100000000001 105.895 1361.59 106.038 1359.68 105.43299999999999C1357.64 104.78699999999999 1355.46 103.374 1353.54 101.457C1351.6299999999999 99.5389 1350.21 97.35879999999999 1349.57 95.31769999999999C1348.96 93.4108 1349.1 91.88519999999998 1349.97 91.02219999999998V91.02209999999998L1350.08 90.91389999999998L1353.12 93.95519999999999L1352.84 94.23409999999998C1352.84 94.23419999999999 1352.84 94.23449999999998 1352.84 94.23459999999999C1351.6799999999998 95.39179999999999 1353.07 97.99039999999998 1355.04 99.95969999999998C1356.51 101.43399999999998 1358.34 102.58199999999998 1359.6499999999999 102.58199999999998C1360.09 102.58199999999998 1360.4699999999998 102.45199999999998 1360.7699999999998 102.16099999999997L1361.0399999999997 101.88199999999998L1364.0899999999997 104.92399999999998ZM1365.37 104.514L1361.4499999999998 100.595L1362.4699999999998 99.5763L1366.3899999999999 103.495C1366.3899999999999 103.495 1365.37 104.515 1365.37 104.51400000000001ZM1363.19 91.8118C1362.05 90.6708 1360.53 90.0425 1358.92 90.0425C1358.5900000000001 90.0425 1358.3200000000002 90.31110000000001 1358.3200000000002 90.64240000000001C1358.3200000000002 90.97370000000001 1358.5900000000001 91.24220000000001 1358.92 91.24220000000001C1360.21 91.24210000000001 1361.43 91.74570000000001 1362.3400000000001 92.66010000000001C1363.2500000000002 93.57430000000001 1363.7600000000002 94.79000000000002 1363.7600000000002 96.08290000000001C1363.7600000000002 96.4141 1364.0300000000002 96.68270000000001 1364.3600000000001 96.68270000000001C1364.69 96.68270000000001 1364.96 96.41420000000001 1364.96 96.08300000000001C1364.96 94.46970000000002 1364.33 92.95270000000001 1363.19 91.8118ZM1365.34 89.6604C1363.62 87.9447 1361.34 86.9998 1358.9199999999998 86.9999C1358.59 86.9999 1358.32 87.26859999999999 1358.32 87.5998C1358.32 87.9312 1358.59 88.1997 1358.9199999999998 88.1997C1361.0199999999998 88.1995 1362.9999999999998 89.0197 1364.4899999999998 90.50850000000001C1365.9799999999998 91.9976 1366.7999999999997 93.97740000000002 1366.7999999999997 96.08300000000001C1366.7999999999997 96.41440000000001 1367.0699999999997 96.68290000000002 1367.3999999999996 96.68290000000002C1367.7299999999996 96.68290000000002 1367.9999999999995 96.41440000000001 1367.9999999999995 96.08320000000002C1367.9999999999995 93.65690000000002 1367.0599999999995 91.37590000000002 1365.3399999999995 89.66040000000002ZM1361.04 93.9631C1360.46 93.3887 1359.73 93.0851 1358.92 93.0851V93.0851C1358.5900000000001 93.0852 1358.3200000000002 93.3537 1358.3200000000002 93.68509999999999C1358.3200000000002 94.0165 1358.5900000000001 94.285 1358.92 94.28479999999999V94.28479999999999C1359.41 94.28479999999999 1359.8400000000001 94.46199999999999 1360.19 94.8115C1360.53 95.15589999999999 1360.71 95.59559999999999 1360.71 96.08269999999999C1360.71 96.41399999999999 1360.98 96.6826 1361.31 96.6826V96.6826C1361.6499999999999 96.6826 1361.9099999999999 96.41409999999999 1361.9099999999999 96.0829C1361.9099999999999 95.27069999999999 1361.61 94.5377 1361.04 93.9631Z " fill="#485368" fill-opacity="1" transform="matrix(1,0,0,1,-1347,-86)"></path></svg>