<svg id="SvgjsSvg1000" xmlns="http://www.w3.org/2000/svg" version="1.1" xmlns:xlink="http://www.w3.org/1999/xlink" xmlns:svgjs="http://svgjs.com/svgjs" width="30" height="30" viewBox="0 0 30 30"><title> 25%</title><desc>Created with Avocode.</desc><defs id="SvgjsDefs1001"></defs><path id="SvgjsPath1007" d="M1487.1 2339.38C1486.77 2341.04 1487.28 2342.2400000000002 1487.83 2342.81C1488.3899999999999 2343.39 1489.1 2344 1490.79 2344H1497.71C1502.19 2344 1505.5900000000001 2342.28 1508.73 2339.5C1511.77 2336.8 1513.75 2333.2 1514.66 2328.7C1515.17 2326.21 1515.1100000000001 2323.8999999999996 1514.5 2321.7599999999998C1513.87 2319.4799999999996 1512.67 2317.7 1510.92 2316.4199999999996C1509.0600000000002 2315.0499999999997 1506.3500000000001 2313.9999999999995 1502.65 2313.9999999999995H1499.71718C1500.38148 2314.9945899999993 1500.7700000000002 2316.1960399999994 1500.7700000000002 2317.4899999999993C1500.7700000000002 2318.294979999999 1500.6196400000001 2319.0641599999994 1500.34605 2319.7699999999995H1501.48C1506.8700000000001 2319.7699999999995 1508.48 2323.2899999999995 1507.39 2328.6799999999994C1506.19 2334.5799999999995 1503.0400000000002 2338.2299999999996 1497.73 2338.2299999999996H1494.27L1497.34909 2323.0726799999998C1496.5428399999998 2323.4744899999996 1495.63698 2323.7 1494.6799999999998 2323.7C1493.1168499999999 2323.7 1491.6914 2323.1018799999997 1490.6122099999998 2322.11822Z " fill="#ffffff" fill-opacity="1" transform="matrix(1,0,0,1,-1486,-2314)"></path></svg>