<svg id="SvgjsSvg1011" xmlns="http://www.w3.org/2000/svg" version="1.1" xmlns:xlink="http://www.w3.org/1999/xlink" xmlns:svgjs="http://svgjs.com/svgjs" width="20" height="12" viewBox="0 0 20 12"><title>Фигура 1</title><desc>Created with Avocode.</desc><defs id="SvgjsDefs1012"></defs><path id="SvgjsPath1013" d="M422.524 2210.01H423.637C423.637 2210.01 423.973 2209.98 424.145 2209.7900000000004C424.303 2209.6200000000003 424.29699999999997 2209.3000000000006 424.29699999999997 2209.3000000000006C424.29699999999997 2209.3000000000006 424.27599999999995 2207.7900000000004 424.969 2207.560000000001C425.652 2207.350000000001 426.53 2209.020000000001 427.459 2209.670000000001C428.163 2210.1600000000008 428.697 2210.050000000001 428.697 2210.050000000001L431.184 2210.010000000001C431.184 2210.010000000001 432.485 2209.930000000001 431.86800000000005 2208.900000000001C431.81700000000006 2208.820000000001 431.50900000000007 2208.140000000001 430.01900000000006 2206.740000000001C428.45900000000006 2205.2700000000013 428.66800000000006 2205.510000000001 430.5470000000001 2202.980000000001C431.6910000000001 2201.440000000001 432.1480000000001 2200.500000000001 432.0050000000001 2200.100000000001C431.8690000000001 2199.710000000001 431.0270000000001 2199.810000000001 431.0270000000001 2199.810000000001L428.2280000000001 2199.830000000001C428.2280000000001 2199.830000000001 428.0200000000001 2199.8000000000006 427.8660000000001 2199.900000000001C427.7160000000001 2199.990000000001 427.6190000000001 2200.200000000001 427.6190000000001 2200.200000000001C427.6190000000001 2200.200000000001 427.1760000000001 2201.3900000000012 426.5850000000001 2202.410000000001C425.3380000000001 2204.550000000001 424.8400000000001 2204.660000000001 424.6360000000001 2204.530000000001C424.1620000000001 2204.220000000001 424.2800000000001 2203.280000000001 424.2800000000001 2202.6200000000013C424.2800000000001 2200.5400000000013 424.59100000000007 2199.680000000001 423.6740000000001 2199.4600000000014C423.3700000000001 2199.3800000000015 423.1460000000001 2199.3300000000013 422.3670000000001 2199.3300000000013C421.36800000000005 2199.3100000000013 420.5230000000001 2199.3300000000013 420.0440000000001 2199.570000000001C419.7250000000001 2199.720000000001 419.4800000000001 2200.070000000001 419.6290000000001 2200.090000000001C419.81500000000005 2200.1200000000013 420.2340000000001 2200.210000000001 420.4560000000001 2200.510000000001C420.74300000000005 2200.910000000001 420.73300000000006 2201.7900000000013 420.73300000000006 2201.7900000000013C420.73300000000006 2201.7900000000013 420.8980000000001 2204.240000000001 420.34800000000007 2204.5400000000013C419.9700000000001 2204.7500000000014 419.4530000000001 2204.3200000000015 418.34100000000007 2202.3800000000015C417.77200000000005 2201.3900000000017 417.34200000000004 2200.2900000000013 417.34200000000004 2200.2900000000013C417.34200000000004 2200.2900000000013 417.259 2200.0800000000013 417.11100000000005 2199.970000000001C416.93100000000004 2199.840000000001 416.68100000000004 2199.800000000001 416.68100000000004 2199.800000000001L414.02000000000004 2199.8100000000013C414.02000000000004 2199.8100000000013 413.62100000000004 2199.8300000000013 413.47400000000005 2200.0000000000014C413.34400000000005 2200.160000000001 413.46400000000006 2200.4800000000014 413.46400000000006 2200.4800000000014C413.46400000000006 2200.4800000000014 415.54600000000005 2205.410000000001 417.90500000000003 2207.8900000000012C420.06800000000004 2210.160000000001 422.524 2210.010000000001 422.524 2210.010000000001Z " fill="#ffffff" fill-opacity="1" transform="matrix(1,0,0,1,-413,-2199)"></path><path id="SvgjsPath1014" d="M422.524 2210.01H423.637C423.637 2210.01 423.973 2209.98 424.145 2209.7900000000004C424.303 2209.6200000000003 424.29699999999997 2209.3000000000006 424.29699999999997 2209.3000000000006C424.29699999999997 2209.3000000000006 424.27599999999995 2207.7900000000004 424.969 2207.560000000001C425.652 2207.350000000001 426.53 2209.020000000001 427.459 2209.670000000001C428.163 2210.1600000000008 428.697 2210.050000000001 428.697 2210.050000000001L431.184 2210.010000000001C431.184 2210.010000000001 432.485 2209.930000000001 431.86800000000005 2208.900000000001C431.81700000000006 2208.820000000001 431.50900000000007 2208.140000000001 430.01900000000006 2206.740000000001C428.45900000000006 2205.2700000000013 428.66800000000006 2205.510000000001 430.5470000000001 2202.980000000001C431.6910000000001 2201.440000000001 432.1480000000001 2200.500000000001 432.0050000000001 2200.100000000001C431.8690000000001 2199.710000000001 431.0270000000001 2199.810000000001 431.0270000000001 2199.810000000001L428.2280000000001 2199.830000000001C428.2280000000001 2199.830000000001 428.0200000000001 2199.8000000000006 427.8660000000001 2199.900000000001C427.7160000000001 2199.990000000001 427.6190000000001 2200.200000000001 427.6190000000001 2200.200000000001C427.6190000000001 2200.200000000001 427.1760000000001 2201.3900000000012 426.5850000000001 2202.410000000001C425.3380000000001 2204.550000000001 424.8400000000001 2204.660000000001 424.6360000000001 2204.530000000001C424.1620000000001 2204.220000000001 424.2800000000001 2203.280000000001 424.2800000000001 2202.6200000000013C424.2800000000001 2200.5400000000013 424.59100000000007 2199.680000000001 423.6740000000001 2199.4600000000014C423.3700000000001 2199.3800000000015 423.1460000000001 2199.3300000000013 422.3670000000001 2199.3300000000013C421.36800000000005 2199.3100000000013 420.5230000000001 2199.3300000000013 420.0440000000001 2199.570000000001C419.7250000000001 2199.720000000001 419.4800000000001 2200.070000000001 419.6290000000001 2200.090000000001C419.81500000000005 2200.1200000000013 420.2340000000001 2200.210000000001 420.4560000000001 2200.510000000001C420.74300000000005 2200.910000000001 420.73300000000006 2201.7900000000013 420.73300000000006 2201.7900000000013C420.73300000000006 2201.7900000000013 420.8980000000001 2204.240000000001 420.34800000000007 2204.5400000000013C419.9700000000001 2204.7500000000014 419.4530000000001 2204.3200000000015 418.34100000000007 2202.3800000000015C417.77200000000005 2201.3900000000017 417.34200000000004 2200.2900000000013 417.34200000000004 2200.2900000000013C417.34200000000004 2200.2900000000013 417.259 2200.0800000000013 417.11100000000005 2199.970000000001C416.93100000000004 2199.840000000001 416.68100000000004 2199.800000000001 416.68100000000004 2199.800000000001L414.02000000000004 2199.8100000000013C414.02000000000004 2199.8100000000013 413.62100000000004 2199.8300000000013 413.47400000000005 2200.0000000000014C413.34400000000005 2200.160000000001 413.46400000000006 2200.4800000000014 413.46400000000006 2200.4800000000014C413.46400000000006 2200.4800000000014 415.54600000000005 2205.410000000001 417.90500000000003 2207.8900000000012C420.06800000000004 2210.160000000001 422.524 2210.010000000001 422.524 2210.010000000001Z " fill="#ffffff" fill-opacity="1" transform="matrix(1,0,0,1,-413,-2199)"></path></svg>