<svg id="SvgjsSvg1000" xmlns="http://www.w3.org/2000/svg" version="1.1" xmlns:xlink="http://www.w3.org/1999/xlink" xmlns:svgjs="http://svgjs.com/svgjs" width="36" height="36" viewBox="0 0 36 36"><title>Прямоугольник 1</title><desc>Created with Avocode.</desc><defs id="SvgjsDefs1001"></defs><path id="SvgjsPath1007" d="M405 79V43H441V79Z " fill="#d6ae9a" fill-opacity="1" transform="matrix(1,0,0,1,-405,-43)"></path><path id="SvgjsPath1008" d="M422.524 67.0148H423.637C423.637 67.0148 423.973 66.9772 424.145 66.7905C424.303 66.6186 424.29699999999997 66.29629999999999 424.29699999999997 66.29629999999999C424.29699999999997 66.29629999999999 424.27599999999995 64.78679999999999 424.969 64.56449999999998C425.652 64.34539999999998 426.53 66.02339999999998 427.459 66.66859999999998C428.163 67.15659999999998 428.697 67.04989999999998 428.697 67.04989999999998L431.184 67.01479999999998C431.184 67.01479999999998 432.485 66.93369999999997 431.86800000000005 65.89979999999998C431.81700000000006 65.81529999999998 431.50900000000007 65.13519999999998 430.01900000000006 63.73749999999998C428.45900000000006 62.274999999999984 428.66800000000006 62.51159999999998 430.5470000000001 59.98129999999998C431.6910000000001 58.44039999999998 432.1480000000001 57.499799999999986 432.0050000000001 57.096699999999984C431.8690000000001 56.71299999999999 431.0270000000001 56.814399999999985 431.0270000000001 56.814399999999985L428.2280000000001 56.83189999999998C428.2280000000001 56.83189999999998 428.0200000000001 56.80319999999998 427.8660000000001 56.89629999999998C427.7160000000001 56.98719999999998 427.6190000000001 57.19979999999998 427.6190000000001 57.19979999999998C427.6190000000001 57.19979999999998 427.1760000000001 58.39219999999998 426.5850000000001 59.40649999999998C425.3380000000001 61.54609999999998 424.8400000000001 61.65929999999998 424.6360000000001 61.52619999999998C424.1620000000001 61.21649999999998 424.2800000000001 60.28239999999998 424.2800000000001 59.61849999999998C424.2800000000001 57.54499999999998 424.59100000000007 56.68049999999998 423.6740000000001 56.456499999999984C423.3700000000001 56.38219999999998 423.1460000000001 56.33329999999999 422.3670000000001 56.325099999999985C421.36800000000005 56.314799999999984 420.5230000000001 56.32799999999998 420.0440000000001 56.565299999999986C419.7250000000001 56.722799999999985 419.4800000000001 57.07429999999999 419.6290000000001 57.09449999999999C419.81500000000005 57.11949999999999 420.2340000000001 57.20879999999999 420.4560000000001 57.51409999999999C420.74300000000005 57.90889999999999 420.73300000000006 58.794799999999995 420.73300000000006 58.794799999999995C420.73300000000006 58.794799999999995 420.8980000000001 61.235899999999994 420.34800000000007 61.538999999999994C419.9700000000001 61.747099999999996 419.4530000000001 61.322399999999995 418.34100000000007 59.38119999999999C417.77200000000005 58.386799999999994 417.34200000000004 57.28759999999999 417.34200000000004 57.28759999999999C417.34200000000004 57.28759999999999 417.259 57.08209999999999 417.11100000000005 56.97229999999999C416.93100000000004 56.83889999999999 416.68100000000004 56.79679999999999 416.68100000000004 56.79679999999999L414.02000000000004 56.81439999999999C414.02000000000004 56.81439999999999 413.62100000000004 56.82569999999999 413.47400000000005 57.00119999999999C413.34400000000005 57.15749999999999 413.46400000000006 57.48029999999999 413.46400000000006 57.48029999999999C413.46400000000006 57.48029999999999 415.54600000000005 62.40579999999999 417.90500000000003 64.8878C420.06800000000004 67.164 422.524 67.0148 422.524 67.0148Z " fill="#ffffff" fill-opacity="1" transform="matrix(1,0,0,1,-405,-43)"></path><path id="SvgjsPath1009" d="M422.524 67.0148H423.637C423.637 67.0148 423.973 66.9772 424.145 66.7905C424.303 66.6186 424.29699999999997 66.29629999999999 424.29699999999997 66.29629999999999C424.29699999999997 66.29629999999999 424.27599999999995 64.78679999999999 424.969 64.56449999999998C425.652 64.34539999999998 426.53 66.02339999999998 427.459 66.66859999999998C428.163 67.15659999999998 428.697 67.04989999999998 428.697 67.04989999999998L431.184 67.01479999999998C431.184 67.01479999999998 432.485 66.93369999999997 431.86800000000005 65.89979999999998C431.81700000000006 65.81529999999998 431.50900000000007 65.13519999999998 430.01900000000006 63.73749999999998C428.45900000000006 62.274999999999984 428.66800000000006 62.51159999999998 430.5470000000001 59.98129999999998C431.6910000000001 58.44039999999998 432.1480000000001 57.499799999999986 432.0050000000001 57.096699999999984C431.8690000000001 56.71299999999999 431.0270000000001 56.814399999999985 431.0270000000001 56.814399999999985L428.2280000000001 56.83189999999998C428.2280000000001 56.83189999999998 428.0200000000001 56.80319999999998 427.8660000000001 56.89629999999998C427.7160000000001 56.98719999999998 427.6190000000001 57.19979999999998 427.6190000000001 57.19979999999998C427.6190000000001 57.19979999999998 427.1760000000001 58.39219999999998 426.5850000000001 59.40649999999998C425.3380000000001 61.54609999999998 424.8400000000001 61.65929999999998 424.6360000000001 61.52619999999998C424.1620000000001 61.21649999999998 424.2800000000001 60.28239999999998 424.2800000000001 59.61849999999998C424.2800000000001 57.54499999999998 424.59100000000007 56.68049999999998 423.6740000000001 56.456499999999984C423.3700000000001 56.38219999999998 423.1460000000001 56.33329999999999 422.3670000000001 56.325099999999985C421.36800000000005 56.314799999999984 420.5230000000001 56.32799999999998 420.0440000000001 56.565299999999986C419.7250000000001 56.722799999999985 419.4800000000001 57.07429999999999 419.6290000000001 57.09449999999999C419.81500000000005 57.11949999999999 420.2340000000001 57.20879999999999 420.4560000000001 57.51409999999999C420.74300000000005 57.90889999999999 420.73300000000006 58.794799999999995 420.73300000000006 58.794799999999995C420.73300000000006 58.794799999999995 420.8980000000001 61.235899999999994 420.34800000000007 61.538999999999994C419.9700000000001 61.747099999999996 419.4530000000001 61.322399999999995 418.34100000000007 59.38119999999999C417.77200000000005 58.386799999999994 417.34200000000004 57.28759999999999 417.34200000000004 57.28759999999999C417.34200000000004 57.28759999999999 417.259 57.08209999999999 417.11100000000005 56.97229999999999C416.93100000000004 56.83889999999999 416.68100000000004 56.79679999999999 416.68100000000004 56.79679999999999L414.02000000000004 56.81439999999999C414.02000000000004 56.81439999999999 413.62100000000004 56.82569999999999 413.47400000000005 57.00119999999999C413.34400000000005 57.15749999999999 413.46400000000006 57.48029999999999 413.46400000000006 57.48029999999999C413.46400000000006 57.48029999999999 415.54600000000005 62.40579999999999 417.90500000000003 64.8878C420.06800000000004 67.164 422.524 67.0148 422.524 67.0148Z " fill="#ffffff" fill-opacity="1" transform="matrix(1,0,0,1,-405,-43)"></path></svg>